<svg xmlns="http://www.w3.org/2000/svg" width="160" height="160" viewBox="0 0 160 160" fill="none" aria-hidden="true">
  <text x="0" y="12" font-family="system-ui,sans-serif" font-size="9" font-weight="600" letter-spacing="1.2" fill="#6B7280">RISK HEAT MAP</text>
  <!-- 5x5 grid starting y=24 -->
  <g>
    <rect x="0" y="24" width="28" height="28" rx="4" fill="#8D3D97"/>
    <rect x="32" y="24" width="28" height="28" rx="4" fill="#B85CC0"/>
    <rect x="64" y="24" width="28" height="28" rx="4" fill="#6B2F74"/>
    <rect x="96" y="24" width="28" height="28" rx="4" fill="#E9D5F0"/>
    <rect x="128" y="24" width="28" height="28" rx="4" fill="#B85CC0"/>

    <rect x="0" y="56" width="28" height="28" rx="4" fill="#B85CC0"/>
    <rect x="32" y="56" width="28" height="28" rx="4" fill="#8D3D97"/>
    <rect x="64" y="56" width="28" height="28" rx="4" fill="#6B2F74"/>
    <rect x="96" y="56" width="28" height="28" rx="4" fill="#B85CC0"/>
    <rect x="128" y="56" width="28" height="28" rx="4" fill="#E9D5F0"/>

    <rect x="0" y="88" width="28" height="28" rx="4" fill="#E9D5F0"/>
    <rect x="32" y="88" width="28" height="28" rx="4" fill="#B85CC0"/>
    <rect x="64" y="88" width="28" height="28" rx="4" fill="#8D3D97"/>
    <rect x="96" y="88" width="28" height="28" rx="4" fill="#B85CC0"/>
    <rect x="128" y="88" width="28" height="28" rx="4" fill="#6B2F74"/>

    <rect x="0" y="120" width="28" height="28" rx="4" fill="#F3F4F6"/>
    <rect x="32" y="120" width="28" height="28" rx="4" fill="#E9D5F0"/>
    <rect x="64" y="120" width="28" height="28" rx="4" fill="#B85CC0"/>
    <rect x="96" y="120" width="28" height="28" rx="4" fill="#8D3D97"/>
    <rect x="128" y="120" width="28" height="28" rx="4" fill="#E9D5F0"/>
  </g>
</svg>
